<?xml version="1.0" encoding="UTF-8"?>
<svg id="Layer_1" data-name="Layer 1" xmlns="http://www.w3.org/2000/svg" viewBox="0 0 98 94.93">
  <path d="M41.44,69.38c-12.63-1.53-21.53-10.62-21.53-22.39,0-4.79,1.72-9.95,4.59-13.4-1.24-3.16-1.05-9.86.38-12.63,3.83-.48,9,1.53,12.06,4.31,3.64-1.15,7.46-1.72,12.15-1.72s8.52.57,11.96,1.63c2.97-2.68,8.23-4.69,12.06-4.21,1.34,2.58,1.53,9.28.29,12.54,3.06,3.64,4.69,8.52,4.69,13.49,0,11.77-8.9,20.67-21.72,22.3,3.25,2.11,5.46,6.7,5.46,11.96v9.95c0,2.87,2.39,4.5,5.26,3.35,17.32-6.6,30.91-23.93,30.91-45.36C98,22.11,75.99,0,48.9,0,21.82,0,0,22.11,0,49.19c0,21.25,13.49,38.86,31.68,45.46,2.58.96,5.07-.77,5.07-3.35v-7.66c-1.34.57-3.06.96-4.59.96-6.32,0-10.05-3.45-12.73-9.86-1.05-2.58-2.2-4.12-4.4-4.4-1.15-.1-1.53-.57-1.53-1.15,0-1.15,1.91-2.01,3.83-2.01,2.78,0,5.17,1.72,7.66,5.26,1.91,2.78,3.92,4.02,6.32,4.02s3.92-.86,6.12-3.06c1.63-1.63,2.87-3.06,4.02-4.02Z" style="fill: #2a2a2a;"/>
</svg>