<?xml version="1.0" encoding="UTF-8"?>
<svg id="Layer_1" data-name="Layer 1" xmlns="http://www.w3.org/2000/svg" width="120" height="120" viewBox="0 0 120 120">
  <g>
    <rect x="3.15" y="3.15" width="113.71" height="113.71" style="fill: #830e0d;"/>
    <path d="M113.71,6.29v107.41H6.29V6.29h107.41M120,0H0v120h120V0h0Z" style="fill: #f4f2e8;"/>
  </g>
  <path d="M59.94,17.59c11.47,0,17.66,7.86,17.66,22.17l-11.21,3.61v-6.32c0-7.09-2.32-10.31-6.45-10.31s-6.45,3.22-6.45,10.31v45.89c0,7.09,2.32,10.31,6.45,10.31s6.45-3.22,6.45-10.31v-6.32l11.21,3.61c0,14.31-6.19,22.17-17.66,22.17s-17.53-7.22-17.53-22.56v-39.7c0-15.34,6.45-22.56,17.53-22.56Z" style="fill: #f4f2e8;"/>
</svg>