<?xml version="1.0" encoding="UTF-8"?>
<svg id="Layer_1" data-name="Layer 1" xmlns="http://www.w3.org/2000/svg" viewBox="0 0 200 200">
  <defs>
    <style>
      .cls-1 {
        fill: #2a2a2a;
        fill-rule: evenodd;
      }
    </style>
  </defs>
  <path class="cls-1" d="M100,0C44.77,0,0,44.77,0,100s44.77,100,100,100,100-44.77,100-100S155.23,0,100,0ZM146.35,68.01c-1.5,15.81-8.02,54.18-11.33,71.89-1.4,7.49-4.16,10.01-6.83,10.25-5.81.53-10.22-3.84-15.84-7.52-8.8-5.77-13.77-9.36-22.32-14.99-9.87-6.51-3.47-10.08,2.15-15.93,1.47-1.53,27.06-24.8,27.55-26.91.06-.26.12-1.25-.47-1.77-.58-.52-1.45-.34-2.07-.2-.88.2-14.94,9.49-42.18,27.88-3.99,2.74-7.61,4.08-10.84,4.01-3.57-.08-10.44-2.02-15.54-3.68-6.26-2.04-11.24-3.11-10.81-6.57.23-1.8,2.71-3.64,7.44-5.52,29.15-12.7,48.59-21.07,58.32-25.12,27.77-11.55,33.54-13.56,37.3-13.62.83-.01,2.68.19,3.88,1.16,1.01.82,1.29,1.93,1.42,2.71.13.78.3,2.55.17,3.94Z"/>
</svg>